<?xml version="1.0" standalone="no"?>
<!DOCTYPE svg PUBLIC "-//W3C//DTD SVG 20010904//EN"
 "http://www.w3.org/TR/2001/REC-SVG-20010904/DTD/svg10.dtd">
<svg version="1.0" xmlns="http://www.w3.org/2000/svg"
 width="240.000000pt" height="240.000000pt" viewBox="0 0 240.000000 240.000000"
 preserveAspectRatio="xMidYMid meet">

<g transform="translate(0.000000,240.000000) scale(0.100000,-0.100000)"
fill="#000000" stroke="none">
<path d="M1134 2171 c-21 -16 -238 -228 -481 -472 -391 -393 -442 -448 -449
-482 -12 -71 41 -117 138 -117 l57 0 3 -337 3 -338 28 -57 c34 -69 91 -121
164 -148 51 -19 78 -20 603 -20 525 0 552 1 603 20 73 27 130 79 164 148 l28
57 3 338 3 337 57 0 c97 0 150 46 138 117 -7 34 -58 89 -449 482 -243 244
-460 456 -481 472 -21 16 -51 29 -66 29 -15 0 -45 -13 -66 -29z m401 -551
c259 -259 325 -331 312 -336 -44 -17 -47 -42 -47 -438 l0 -376 -29 -32 c-26
-30 -35 -33 -100 -36 l-71 -4 0 275 c0 258 -1 280 -22 334 -27 74 -97 144
-173 172 -47 18 -78 21 -205 21 -182 0 -237 -16 -310 -90 -84 -83 -90 -114
-90 -437 l0 -275 -71 4 c-65 3 -74 6 -100 36 l-29 32 0 376 c0 396 -3 421 -47
438 -13 5 53 77 312 336 182 182 332 330 335 330 3 0 153 -148 335 -330z
m-173 -649 l33 -29 3 -271 3 -271 -201 0 -201 0 3 271 3 271 33 29 c32 29 33
29 162 29 129 0 130 0 162 -29z"/>
</g>
</svg>
